<svg width="180" height="180" viewBox="0 0 140 150" fill="none" xmlns="http://www.w3.org/2000/svg">
<path d="M99.504 96.3933C99.9003 101.126 98.2988 105.996 94.6936 109.633C91.0883 113.27 86.2327 114.915 81.4969 114.56C81.1007 109.828 82.7021 104.958 86.3074 101.32C89.9126 97.6832 94.7683 96.0389 99.504 96.3933Z" fill="#FFC83D"/>
<path d="M90.9259 89.8171C86.1996 94.8714 79.3718 97.9013 71.9174 97.5609C64.4638 97.2205 57.9412 93.5815 53.6953 88.1184C58.4216 83.0641 65.2494 80.0341 72.7038 80.3746C80.1574 80.715 86.68 84.354 90.9259 89.8171Z" fill="#FFC83D"/>
<path d="M50.917 73.5511C51.9043 61.7161 57.8753 50.3713 68.276 42.8984C78.6763 35.4258 91.3328 33.3865 102.864 36.2264C101.877 48.0614 95.9056 59.4062 85.5049 66.8791C75.1046 74.3517 62.4481 76.391 50.917 73.5511Z" fill="#FFC83D"/>
</svg>