<svg width="358" height="150" viewBox="0 0 358 150" fill="none" xmlns="http://www.w3.org/2000/svg">
<path d="M99.504 96.3933C99.9003 101.126 98.2988 105.996 94.6936 109.633C91.0883 113.27 86.2327 114.915 81.4969 114.56C81.1007 109.828 82.7021 104.958 86.3074 101.32C89.9126 97.6832 94.7683 96.0389 99.504 96.3933Z" fill="#FFC83D"/>
<path d="M90.9259 89.8171C86.1996 94.8714 79.3718 97.9013 71.9174 97.5609C64.4638 97.2205 57.9412 93.5815 53.6953 88.1184C58.4216 83.0641 65.2494 80.0341 72.7038 80.3746C80.1574 80.715 86.68 84.354 90.9259 89.8171Z" fill="#FFC83D"/>
<path d="M50.917 73.5511C51.9043 61.7161 57.8753 50.3713 68.276 42.8984C78.6763 35.4258 91.3328 33.3865 102.864 36.2264C101.877 48.0614 95.9056 59.4062 85.5049 66.8791C75.1046 74.3517 62.4481 76.391 50.917 73.5511Z" fill="#FFC83D"/>
<path d="M242.636 59.0378V66.2446H246.96V103.922H254.647V66.2446H264.737V59.0378H254.647V51.6632C254.647 49.5491 254.839 47.8517 255.224 46.5703C255.608 45.2891 256.121 44.3923 256.761 43.8797C257.466 43.3032 258.299 43.015 259.26 43.015C260.028 43.015 260.829 43.1752 261.662 43.4953C262.559 43.7516 263.327 44.4242 263.968 45.5133L268.196 39.1713C267.748 38.5306 267.107 37.9221 266.274 37.3457C265.506 36.769 264.577 36.2884 263.488 35.9041C262.399 35.5197 261.149 35.3276 259.74 35.3276C257.049 35.3276 254.743 35.9041 252.821 37.0572C250.964 38.1463 249.522 39.8118 248.497 42.054C247.472 44.2962 246.96 47.1788 246.96 50.7022V59.0378H242.636Z" fill="white"/>
<path d="M121.917 44.345L121.917 103.922H156.51V96.2345H130.085V44.345H121.917Z" fill="white"/>
<path fill-rule="evenodd" clip-rule="evenodd" d="M176.996 104.883C181.737 104.883 185.837 103.954 189.296 102.096C192.819 100.174 195.734 97.3554 198.04 93.64L191.794 89.7002C190.193 92.3908 188.239 94.4088 185.933 95.7539C183.627 97.0351 180.968 97.6758 177.957 97.6758C174.946 97.6758 172.384 97.0351 170.27 95.7539C168.156 94.4728 166.554 92.6149 165.465 90.1807C164.638 88.3307 164.124 86.1847 163.926 83.7426H198.713V82.8777C198.777 82.3653 198.809 81.8847 198.809 81.4363C198.809 76.7599 197.976 72.7241 196.311 69.3288C194.645 65.9335 192.243 63.3391 189.104 61.5452C186.029 59.6877 182.313 58.7588 177.957 58.7588C173.601 58.7588 169.757 59.7196 166.426 61.6414C163.159 63.5633 160.597 66.2539 158.739 69.7132C156.945 73.1725 156.048 77.2083 156.048 81.8207C156.048 86.3691 156.913 90.3727 158.643 93.8321C160.436 97.2914 162.903 100.014 166.042 102C169.245 103.922 172.896 104.883 176.996 104.883ZM165.561 72.7882C164.947 74.0885 164.496 75.5619 164.208 77.2083H190.406C190.258 75.1031 189.728 73.2456 188.815 71.635C187.79 69.7132 186.349 68.2079 184.491 67.1188C182.634 66.0297 180.455 65.4851 177.957 65.4851C175.01 65.4851 172.48 66.1258 170.366 67.407C168.316 68.6241 166.714 70.4179 165.561 72.7882Z" fill="white"/>
<path fill-rule="evenodd" clip-rule="evenodd" d="M230.101 79.6871C228.893 78.8946 227.355 78.1967 225.489 77.5926C223.375 76.8239 220.716 76.4395 217.513 76.4395C212.068 76.4395 207.808 77.7528 204.733 80.3794C201.722 82.9417 200.217 86.3691 200.217 90.6612C200.217 93.6719 200.921 96.2345 202.33 98.3484C203.74 100.463 205.598 102.096 207.904 103.249C210.274 104.338 212.805 104.883 215.495 104.883C217.929 104.883 220.364 104.434 222.798 103.538C225.297 102.641 227.379 101.263 229.044 99.4057C229.442 98.9779 229.794 98.5246 230.101 98.046V103.922H237.788V72.2115C237.788 69.3288 237.052 66.8946 235.578 64.9087C234.169 62.9228 232.151 61.4172 229.525 60.3924C226.962 59.3033 223.951 58.7588 220.492 58.7588C216.392 58.7588 212.869 59.3673 209.922 60.5845C207.039 61.8016 204.765 63.0187 203.099 64.2358L206.847 69.9052C207.551 69.3928 208.513 68.7843 209.73 68.0795C210.947 67.3748 212.42 66.7663 214.15 66.2539C215.944 65.7415 217.929 65.4851 220.108 65.4851C221.453 65.4851 222.734 65.6131 223.951 65.8695C225.168 66.1258 226.225 66.5421 227.122 67.1188C228.083 67.6952 228.82 68.4961 229.332 69.5209C229.845 70.4819 230.101 71.7312 230.101 73.2687V79.6871ZM209.153 86.1449C208.384 87.2981 208 88.6754 208 90.2769C208 91.9424 208.384 93.3837 209.153 94.6008C209.986 95.8179 211.107 96.7469 212.516 97.3876C213.99 97.964 215.655 98.2525 217.513 98.2525C219.883 98.2525 221.997 97.7719 223.855 96.8109C225.777 95.8501 227.282 94.5046 228.371 92.7751C229.525 90.9813 230.101 88.9314 230.101 86.6252V84.9628C228.87 84.3638 227.621 83.8929 226.353 83.5502C223.983 82.8458 221.453 82.4933 218.762 82.4933C216.264 82.4933 214.214 82.8136 212.612 83.4544C211.075 84.0948 209.922 84.9918 209.153 86.1449Z" fill="white"/>
<path fill-rule="evenodd" clip-rule="evenodd" d="M298.093 102.096C294.634 103.954 290.534 104.883 285.794 104.883C281.694 104.883 278.042 103.922 274.839 102C271.7 100.014 269.234 97.2914 267.44 93.8321C265.71 90.3727 264.846 86.3691 264.846 81.8207C264.846 77.2083 265.743 73.1725 267.536 69.7132C269.394 66.2539 271.956 63.5633 275.223 61.6414C278.555 59.7196 282.398 58.7588 286.755 58.7588C291.111 58.7588 294.826 59.6877 297.901 61.5452C301.04 63.3391 303.442 65.9335 305.108 69.3288C306.774 72.7241 307.606 76.7599 307.606 81.4363C307.606 81.8847 307.574 82.3653 307.51 82.8777V83.7426H272.723C272.922 86.1847 273.435 88.3307 274.263 90.1807C275.352 92.6149 276.953 94.4728 279.067 95.7539C281.181 97.0351 283.744 97.6758 286.755 97.6758C289.765 97.6758 292.424 97.0351 294.73 95.7539C297.036 94.4088 298.99 92.3908 300.592 89.7002L306.838 93.64C304.531 97.3554 301.617 100.174 298.093 102.096ZM273.006 77.2083C273.294 75.5619 273.745 74.0885 274.359 72.7882C275.512 70.4179 277.113 68.6241 279.163 67.407C281.277 66.1258 283.808 65.4851 286.755 65.4851C289.253 65.4851 291.431 66.0297 293.289 67.1188C295.146 68.2079 296.588 69.7132 297.613 71.635C298.525 73.2456 299.056 75.1031 299.204 77.2083H273.006Z" fill="white"/>
</svg>
